<svg width="19" height="18" viewBox="0 0 19 18" fill="none" xmlns="http://www.w3.org/2000/svg">
<g clip-path="url(#clip0_1_418)">
<path d="M2.37537 9C2.37537 9.88642 2.54996 10.7642 2.88918 11.5831C3.2284 12.4021 3.7256 13.1462 4.3524 13.773C4.97919 14.3998 5.72331 14.897 6.54225 15.2362C7.3612 15.5754 8.23894 15.75 9.12537 15.75C10.0118 15.75 10.8895 15.5754 11.7085 15.2362C12.5274 14.897 13.2715 14.3998 13.8983 13.773C14.5251 13.1462 15.0223 12.4021 15.3616 11.5831C15.7008 10.7642 15.8754 9.88642 15.8754 9C15.8754 8.11358 15.7008 7.23583 15.3616 6.41689C15.0223 5.59794 14.5251 4.85382 13.8983 4.22703C13.2715 3.60023 12.5274 3.10303 11.7085 2.76381C10.8895 2.42459 10.0118 2.25 9.12537 2.25C8.23894 2.25 7.3612 2.42459 6.54225 2.76381C5.72331 3.10303 4.97919 3.60023 4.3524 4.22703C3.7256 4.85382 3.2284 5.59794 2.88918 6.41689C2.54996 7.23583 2.37537 8.11358 2.37537 9Z" stroke="#4F4F4F" stroke-width="1.8" stroke-linecap="round" stroke-linejoin="round"/>
<path d="M10.6254 7.5C10.6254 7.10218 10.4673 6.72064 10.186 6.43934C9.90472 6.15804 9.52319 6 9.12537 6C8.72754 6 8.34601 6.15804 8.06471 6.43934C7.7834 6.72064 7.62537 7.10218 7.62537 7.5V10.5C7.62537 10.8978 7.7834 11.2794 8.06471 11.5607C8.34601 11.842 8.72754 12 9.12537 12C9.52319 12 9.90472 11.842 10.186 11.5607C10.4673 11.2794 10.6254 10.8978 10.6254 10.5" stroke="#4F4F4F" stroke-width="1.8" stroke-linecap="round" stroke-linejoin="round"/>
</g>
<defs>
<clipPath id="clip0_1_418">
<rect width="18" height="18" fill="white" transform="translate(0.125366)"/>
</clipPath>
</defs>
</svg>
