<svg width="20" height="21" viewBox="0 0 20 21" fill="none" xmlns="http://www.w3.org/2000/svg">
<path d="M9.30387 15.1267C9.85588 15.1364 10.2955 15.5917 10.2861 16.1437L10.2857 16.1662C10.2762 16.7186 9.8205 17.1587 9.26806 17.1489L4.33262 17.0611C3.78064 17.0513 3.34105 16.596 3.35055 16.044L3.43814 10.9571C3.44757 10.4094 3.89955 9.97326 4.44724 9.98332C4.99405 9.99336 5.42936 10.4444 5.41995 10.9913L5.37456 13.6266L13.1966 5.91737L10.6962 5.8733C10.1442 5.86357 9.70447 5.40833 9.71394 4.85631L9.71432 4.83384C9.7238 4.28138 10.1795 3.84131 10.732 3.85114L15.6674 3.93893C16.2194 3.94875 16.659 4.40401 16.6495 4.95599L16.5619 10.0429C16.5524 10.5906 16.1005 11.0268 15.5528 11.0167C15.006 11.0067 14.5707 10.5556 14.5801 10.0087L14.6264 7.31987L6.7509 15.0816L9.30387 15.1267Z" fill="#4F4F4F"/>
</svg>
