<svg width="8" height="10" viewBox="0 0 8 10" fill="none" xmlns="http://www.w3.org/2000/svg">
<path d="M6.6676 3.74992C6.49102 3.74988 6.32168 3.68401 6.19684 3.56679L4.00415 1.50864L1.81147 3.56679C1.75004 3.62648 1.67657 3.6741 1.59533 3.70685C1.51409 3.73961 1.42672 3.75685 1.33831 3.75757C1.24989 3.75829 1.16221 3.74248 1.08038 3.71105C0.998548 3.67963 0.924203 3.63322 0.861683 3.57454C0.799163 3.51585 0.749721 3.44607 0.716241 3.36926C0.682761 3.29245 0.665913 3.21015 0.666682 3.12716C0.66745 3.04417 0.685819 2.96216 0.720716 2.8859C0.755613 2.80965 0.80634 2.74068 0.869937 2.68303L3.53339 0.182994C3.65825 0.0658231 3.82759 0 4.00415 0C4.18072 0 4.35005 0.0658231 4.47492 0.182994L7.13837 2.68303C7.23146 2.77044 7.29486 2.88179 7.32054 3.00301C7.34622 3.12423 7.33303 3.24988 7.28265 3.36407C7.23226 3.47826 7.14694 3.57586 7.03746 3.64454C6.92799 3.71322 6.79928 3.74989 6.6676 3.74992Z" fill="#4F4F4F"/>
<path d="M4.00415 10C3.82757 9.99996 3.65823 9.93409 3.53339 9.81687L0.869937 7.31684C0.80634 7.25918 0.755613 7.19022 0.720716 7.11396C0.685819 7.03771 0.66745 6.9557 0.666682 6.87271C0.665913 6.78972 0.682761 6.70742 0.716241 6.63061C0.749721 6.5538 0.799163 6.48401 0.861683 6.42533C0.924203 6.36665 0.998548 6.32024 1.08038 6.28881C1.16221 6.25739 1.24989 6.24157 1.33831 6.24229C1.42672 6.24301 1.51409 6.26026 1.59533 6.29301C1.67657 6.32577 1.75004 6.37338 1.81147 6.43308L4.00415 8.49123L6.19684 6.43308C6.32242 6.31923 6.49062 6.25623 6.66521 6.25765C6.83979 6.25908 7.0068 6.32481 7.13026 6.44069C7.25371 6.55657 7.32374 6.71333 7.32526 6.87721C7.32678 7.04108 7.25966 7.19896 7.13837 7.31684L4.47492 9.81687C4.35007 9.93409 4.18074 9.99996 4.00415 10Z" fill="#4F4F4F"/>
</svg>
